<?xml version="1.0" standalone="no"?><!DOCTYPE svg PUBLIC "-//W3C//DTD SVG 1.1//EN" "http://www.w3.org/Graphics/SVG/1.1/DTD/svg11.dtd"><svg t="1587288961617" class="icon" viewBox="0 0 1024 1024" version="1.1" xmlns="http://www.w3.org/2000/svg" p-id="2659" xmlns:xlink="http://www.w3.org/1999/xlink" width="200" height="200"><defs><style type="text/css"></style></defs><path d="M529.075399 43.512003c-248.28683 0-449.583438 201.302749-449.583438 449.624371 0 248.295016 201.296609 449.594695 449.583438 449.594695 248.281713 0 449.63665-201.301725 449.63665-449.594695C978.711026 244.814752 777.357112 43.512003 529.075399 43.512003zM538.265712 672.779823l94.377484 0c34.158984 0 52.988842-10.107195 56.502875-30.217209 4.149507-22.344914 7.659447-47.562249 10.531867-75.653027 12.130272 5.428639 25.961278 10.851139 41.60456 16.278755-5.106298 33.196053-10.213619 59.905368-15.322987 80.012312-8.620331 33.091676-35.112706 49.798173-79.484286 49.798173l-118.744451 0c-53.945633 0-80.865749-24.899086-80.865749-74.695213L446.865026 462.742133l-160.880107 17.981537-3.831258-39.687908 164.710342-17.980513L446.864002 260.045641l43.094494 0L489.958496 418.266176l253.237585-27.984355 3.40454 38.731116L489.959519 457.954083 489.959519 628.729561C489.959519 658.095379 506.024403 672.779823 538.265712 672.779823z" p-id="2660" fill="#d81e06"></path></svg>