<?xml version="1.0" standalone="no"?><!DOCTYPE svg PUBLIC "-//W3C//DTD SVG 1.1//EN" "http://www.w3.org/Graphics/SVG/1.1/DTD/svg11.dtd"><svg t="1587525172911" class="icon" viewBox="0 0 1024 1024" version="1.1" xmlns="http://www.w3.org/2000/svg" p-id="682" xmlns:xlink="http://www.w3.org/1999/xlink" width="200" height="200"><defs><style type="text/css"></style></defs><path d="M511.386528 70.213131c-243.772003 0-441.359127 197.587124-441.359127 441.375499 0 243.75563 197.586101 441.342754 441.359127 441.342754 243.754606 0 441.36015-197.587124 441.36015-441.342754C952.746678 267.799232 755.141134 70.213131 511.386528 70.213131M511.386528 908.498406C292.174897 908.498406 114.46038 730.801285 114.46038 511.588631 114.46038 292.341185 292.174897 114.645087 511.386528 114.645087c219.213677 0 396.927171 177.695075 396.927171 396.942521C908.313699 730.801285 730.600205 908.498406 511.386528 908.498406" p-id="683" fill="#b93e39"></path><path d="M695.384146 367.841739c0.642636-1.873674 1.301645-3.783163 1.301645-5.831822 0-11.212366-10.015098-20.341281-22.372543-20.341281l-100.686167 0c-0.033769 0-0.052189 0.034792-0.12075 0.034792-0.034792 0-0.086981-0.034792-0.13917-0.034792-2.411933 0-4.668323 0.520863-6.803963 1.319042-8.834202 2.707668-15.290241 10.066263-15.290241 19.022239 0 0.382717 0.226151 0.763386 0.242524 1.14508-0.104377 0.972141-0.242524 1.87572-0.242524 2.846838l0 358.758873c0 13.433964 9.874905 24.299429 22.095227 24.299429 12.183484 0 22.076808-10.865465 22.076808-24.299429L595.444992 382.317429l51.444673 0L617.487008 498.572176c-1.023306 3.748371-0.953721 7.42818-0.363274 10.968819-0.589424 3.505847-0.660032 7.185656 0.363274 10.93505l29.820166 117.955482c-10.813277 1.458211-19.197224 9.546424-19.197224 19.75288 0 11.211343 9.998725 20.306488 22.356171 20.306488l23.13593 0c12.356422 0 22.37152-9.095145 22.37152-20.306488 0-0.417509-0.208754-0.730641-0.25992-1.146103 0.399089-3.193739 0.242524-6.561439-0.660032-9.961886l-34.765805-137.533376 34.765805-137.568169C695.418938 370.549408 695.243953 369.196597 695.384146 367.841739" p-id="684" fill="#b93e39"></path><path d="M524.838911 413.246859c-0.13917-0.832971-0.347924-1.63115-0.555655-2.464121-0.450255-1.943258-1.041726-3.679809-2.030239-5.380544-3.817955-7.323802-10.899234-12.322653-19.125593-12.322653-2.690272 0-5.223978 0.590448-7.603165 1.561565l-60.869323 0 0-75.744101c0-13.468756-9.875928-24.333198-22.094204-24.333198-12.184507 0-22.077831 10.865465-22.077831 24.333198l0 75.744101-60.851926 0c-2.378164-0.972141-4.91187-1.561565-7.602142-1.561565-8.227382 0-15.343453 4.998851-19.127639 12.322653-1.00591 1.701758-1.597381 3.437286-2.030239 5.380544-0.226151 0.832971-0.433882 1.63115-0.555655 2.464121-0.052189 0.590448-0.382717 1.110287-0.382717 1.700735 0 0.278339 0.156566 0.451278 0.156566 0.694825-0.069585 0.590448-0.156566 1.14508-0.156566 1.735527l0 257.120009c0 0.972141 0.156566 1.873674 0.260943 2.845815-0.017396 0.381693-0.260943 0.762363-0.260943 1.14508 0 8.921183 6.457062 16.314571 15.291265 19.023262 2.153036 0.763386 4.408403 1.319042 6.803963 1.319042 0.052189 0 0.104377 0 0.155543 0 0.053212 0 0.053212 0 0.053212 0l180.594101 0c0.034792 0 0.069585 0 0.121773 0s0.104377 0 0.173962 0c2.37714 0 4.632507-0.555655 6.801916-1.319042 8.835226-2.707668 15.291265-10.102079 15.291265-19.023262 0-0.382717-0.242524-0.763386-0.277316-1.14508 0.105401-0.972141 0.277316-1.873674 0.277316-2.845815L525.219581 417.377946c0-0.590448-0.13917-1.14508-0.172939-1.735527 0.017396-0.243547 0.172939-0.416486 0.172939-0.694825C525.220604 414.357146 524.8911 413.836283 524.838911 413.246859M390.481877 658.183384l-46.358841 0 0-88.900749 46.358841 0L390.481877 658.183384zM390.481877 528.632819l-46.358841 0 0-93.342921 46.358841 0L390.481877 528.632819zM481.013777 658.183384l-46.359864 0 0-88.900749 46.359864 0L481.013777 658.183384zM481.013777 528.632819l-46.359864 0 0-93.342921 46.359864 0L481.013777 528.632819z" p-id="685" fill="#b93e39"></path></svg>