<?xml version="1.0" standalone="no"?><!DOCTYPE svg PUBLIC "-//W3C//DTD SVG 1.1//EN" "http://www.w3.org/Graphics/SVG/1.1/DTD/svg11.dtd"><svg t="1587289158573" class="icon" viewBox="0 0 1024 1024" version="1.1" xmlns="http://www.w3.org/2000/svg" p-id="4879" xmlns:xlink="http://www.w3.org/1999/xlink" width="200" height="200"><defs><style type="text/css"></style></defs><path d="M1017.369103 872.436633q-167.666975-114.619796-255.763182-272.814061t-98.516189-359.962997l-106.094357 0 0 508.684551 233.975948 0 0 61.572618-233.975948 0 0 214.083256-93.779833 0 0-214.083256-230.186864 0 0-61.572618 230.186864 0 0-508.684551-101.358002 0q-27.47086 408.273821-355.226642 632.777058l0-67.256244q243.448659-241.554117 260.499537-565.520814l-229.239593 0 0-67.256244 425.324699 0 0-172.40333 93.779833 0 0 172.40333 433.850139 0 0 67.256244-234.923219 0q17.050879 328.703053 261.446809 565.520814l0 67.256244z" p-id="4880" fill="#d81e06"></path></svg>