<?xml version="1.0" standalone="no"?><!DOCTYPE svg PUBLIC "-//W3C//DTD SVG 1.1//EN" "http://www.w3.org/Graphics/SVG/1.1/DTD/svg11.dtd"><svg t="1587179136604" class="icon" viewBox="0 0 1024 1024" version="1.1" xmlns="http://www.w3.org/2000/svg" p-id="1633" xmlns:xlink="http://www.w3.org/1999/xlink" width="200" height="200"><defs><style type="text/css"></style></defs><path d="M230.684444 230.684444a398.222222 398.222222 0 0 1 589.937778 28.444445L682.666667 398.222222h341.333333V56.888889l-122.595556 122.595555A512 512 0 0 0 13.084444 398.222222h116.906667a391.68 391.68 0 0 1 100.693333-167.537778zM793.315556 793.315556a398.222222 398.222222 0 0 1-589.937778-28.444445L341.333333 625.777778H0v341.333333l122.595556-122.595555A512 512 0 0 0 1010.915556 625.777778h-117.475556a395.093333 395.093333 0 0 1-100.124444 167.537778z" p-id="1634" fill="#8a8a8a"></path></svg>