<?xml version="1.0" standalone="no"?><!DOCTYPE svg PUBLIC "-//W3C//DTD SVG 1.1//EN" "http://www.w3.org/Graphics/SVG/1.1/DTD/svg11.dtd"><svg t="1587351858563" class="icon" viewBox="0 0 1024 1024" version="1.1" xmlns="http://www.w3.org/2000/svg" p-id="2981" xmlns:xlink="http://www.w3.org/1999/xlink" width="200" height="200"><defs><style type="text/css"></style></defs><path d="M512 778.56l70.4-93.76A32 32 0 0 1 608 672h224a32 32 0 0 0 32-32V256a32 32 0 0 0-32-32H192a32 32 0 0 0-32 32v384a32 32 0 0 0 32 32h224a32 32 0 0 1 25.6 12.8zM192 736a96 96 0 0 1-96-96V256a96 96 0 0 1 96-96h640a96 96 0 0 1 96 96v384a96 96 0 0 1-96 96H624l-86.4 115.2a32 32 0 0 1-51.2 0L400 736z" p-id="2982" fill="#cc3333"></path><path d="M320 416a32 32 0 0 1 0-64h384a32 32 0 0 1 0 64z m0 128a32 32 0 0 1 0-64h256a32 32 0 0 1 0 64z" p-id="2983" fill="#cc3333"></path></svg>