<?xml version="1.0" standalone="no"?><!DOCTYPE svg PUBLIC "-//W3C//DTD SVG 1.1//EN" "http://www.w3.org/Graphics/SVG/1.1/DTD/svg11.dtd"><svg t="1587178850554" class="icon" viewBox="0 0 1024 1024" version="1.1" xmlns="http://www.w3.org/2000/svg" p-id="19104" xmlns:xlink="http://www.w3.org/1999/xlink" width="200" height="200"><defs><style type="text/css"></style></defs><path d="M313.647955 623.293759c10.965749 0 19.801998-8.836249 19.801998-19.775392L333.449953 348.867596l82.35159 0L415.801543 603.518367c0 10.939143 8.885368 19.775392 19.825534 19.775392 10.965749 0 19.801998-8.836249 19.801998-19.775392L455.429075 332.629773c0-0.618077-0.271176-1.163499-0.346901-1.782599 0.075725-0.618077 0.346901-1.137916 0.346901-1.781576 0-10.940167-8.835226-19.826558-19.801998-19.826558L313.647955 309.23904c-10.915607 0-19.800975 8.886391-19.800975 19.826558 0 0.64366 0.297782 1.163499 0.346901 1.781576-0.050142 0.6191-0.346901 1.163499-0.346901 1.782599L293.84698 603.518367C293.84698 614.45751 302.733371 623.293759 313.647955 623.293759z" p-id="19105" fill="#7c163b"></path><path d="M389.686768 597.379553c-0.470721-0.594541-1.187035-0.842181-1.732457-1.38658 4.851495-20.642133 6.336312-35.543517 6.484691-37.771255L394.439002 387.331629c0-10.915607-8.835226-19.801998-19.776416-19.801998-10.965749 0-19.851117 8.886391-19.851117 19.801998l0.075725 169.106466c-0.075725 0.989537-9.55461 100.096742-72.376401 145.072073-8.860808 6.360871-10.915607 18.73776-4.554736 27.672246 3.860934 5.371334 9.950629 8.242731 16.114003 8.242731 3.984754 0 7.994068-1.187035 11.510148-3.662413 34.30634-24.580838 55.541991-60.543911 68.611657-93.563956l77.302597 90.344634c3.910053 4.554736 9.477862 6.881734 15.022135 6.881734 4.605901 0 9.159614-1.534959 12.897751-4.752234 8.314363-7.080256 9.280364-19.603477 2.153036-27.919886L389.686768 597.379553z" p-id="19106" fill="#7c163b"></path><path d="M504.735038 385.995191l216.233809 0c10.966773 0 19.851117-8.861832 19.851117-19.801998s-8.885368-19.801998-19.851117-19.801998l-79.774905 0c-0.321318-1.980097-0.717338-3.960195-1.708921-5.841032l-21.435195-41.285289c-5.050016-9.702989-17.028838-13.416568-26.730805-8.416693-9.67843 5.050016-13.465686 17.029862-8.44023 26.732851l14.999622 28.811186-93.142353 0c-10.940167 0-19.826558 8.861832-19.826558 19.801998S493.794871 385.995191 504.735038 385.995191z" p-id="19107" fill="#7c163b"></path><path d="M737.503429 485.8709l-66.409502 0 35.469839-58.167794c5.668093-9.332553 2.698458-21.560038-6.607488-27.228131-9.332553-5.717212-21.534456-2.772136-27.228131 6.608511l-41.285289 67.673286c-2.153036 3.464915-2.673899 7.324826-2.50096 11.114129L484.90848 485.8709c-10.963703 0-19.826558 8.860808-19.826558 19.801998 0 10.915607 8.862855 19.776416 19.826558 19.776416l252.594949 0c10.940167 0 19.801998-8.860808 19.801998-19.776416C757.305427 494.732731 748.443595 485.8709 737.503429 485.8709z" p-id="19108" fill="#7c163b"></path><path d="M528.743848 400.648936c-9.207709 5.891174-11.978822 18.11866-6.086625 27.376511l23.118534 36.334533c3.78521 5.916756 10.196223 9.159614 16.73208 9.159614 3.638877 0 7.324826-0.989537 10.641361-3.120061 9.208732-5.865591 11.930727-18.092054 6.040576-27.326369l-23.068392-36.335556C550.180066 397.505339 537.978163 394.782322 528.743848 400.648936z" p-id="19109" fill="#7c163b"></path><path d="M701.166849 570.94346l-183.263907 0c-10.940167 0-19.776416 8.860808-19.776416 19.801998l0 123.71158c0 10.915607 8.836249 19.850094 19.776416 19.850094l183.263907 0c10.940167 0 19.851117-8.934486 19.851117-19.850094L721.017966 590.744435C721.018989 579.804269 712.108039 570.94346 701.166849 570.94346zM681.365874 694.654017 537.70494 694.654017l0-84.107583 143.660934 0L681.365874 694.654017z" p-id="19110" fill="#7c163b"></path><path d="M512.012791 79.614246c-239.005442 0-433.43362 194.428178-433.43362 433.409061 0 238.980883 194.428178 433.409061 433.43362 433.409061 238.956324 0 433.408037-194.428178 433.408037-433.409061C945.420829 274.042423 750.968092 79.614246 512.012791 79.614246zM512.012791 890.689808c-208.263277 0-377.666502-169.426761-377.666502-377.665479 0-208.239741 169.403225-377.666502 377.666502-377.666502 208.214159 0 377.641943 169.427784 377.641943 377.666502C889.654734 721.262024 720.225927 890.689808 512.012791 890.689808z" p-id="19111" fill="#7c163b"></path></svg>