<?xml version="1.0" standalone="no"?><!DOCTYPE svg PUBLIC "-//W3C//DTD SVG 1.1//EN" "http://www.w3.org/Graphics/SVG/1.1/DTD/svg11.dtd"><svg t="1587287084061" class="icon" viewBox="0 0 1024 1024" version="1.1" xmlns="http://www.w3.org/2000/svg" p-id="951" xmlns:xlink="http://www.w3.org/1999/xlink" width="200" height="200"><defs><style type="text/css"></style></defs><path d="M933.952 491.584c23.616-24 32-59.2 21.824-91.968a86.784 86.784 0 0 0-69.568-61.056l-182.592-27.648a43.712 43.712 0 0 1-32.768-24.704L589.248 113.984C574.656 83.136 545.024 64 512 64s-62.656 19.136-77.248 49.984L353.152 286.272a43.584 43.584 0 0 1-32.704 24.704l-182.656 27.648c-32.64 4.928-59.264 28.352-69.504 61.056a91.904 91.904 0 0 0 21.76 91.968l132.096 134.08c10.24 10.432 14.912 25.408 12.48 40.064L203.52 855.04a90.944 90.944 0 0 0 34.304 87.744c15.04 11.392 32.704 17.216 50.496 17.216a83.2 83.2 0 0 0 40.128-10.432l163.328-89.408a41.92 41.92 0 0 1 40.384 0l163.328 89.408c29.312 16 64.064 13.376 90.752-6.784a90.88 90.88 0 0 0 34.24-87.744l-31.168-189.312a46.464 46.464 0 0 1 12.48-40.064l132.16-134.08z m-175.296 96.256a93.056 93.056 0 0 0-24.576 79.616l29.76 181.632a40.256 40.256 0 0 1-15.296 38.848 38.4 38.4 0 0 1-42.304 3.136l-155.456-85.76a79.552 79.552 0 0 0-77.44 0.064l-155.52 85.696a38.272 38.272 0 0 1-42.304-3.072 40 40 0 0 1-15.296-38.848l29.696-181.632a92.928 92.928 0 0 0-24.576-79.68l-125.76-128.64a40.128 40.128 0 0 1-9.664-40.512 39.232 39.232 0 0 1 31.744-27.648l173.888-26.496c27.2-4.224 50.88-22.144 63.168-48.448l77.76-165.312C483.136 136.704 496.512 128 512 128s28.864 8.704 35.456 22.784l77.76 165.248c12.352 26.368 36.032 44.288 63.232 48.512l173.952 26.496a39.104 39.104 0 0 1 31.744 27.648 40.384 40.384 0 0 1-9.664 40.512l-125.824 128.64z" p-id="952" fill="#cc3333"></path></svg>